<mxfile host="Electron" modified="2025-09-16T04:35:27.760Z" agent="Mozilla/5.0 (Macintosh; Intel Mac OS X 10_15_7) AppleWebKit/537.36 (KHTML, like Gecko) draw.io/23.1.5 Chrome/120.0.6099.109 Electron/28.1.0 Safari/537.36" etag="_IRy3ruaoZjeCpog95rK" version="23.1.5" type="device">
  <diagram name="第 1 页" id="Ig12-zRBxRoTPVa7eKiv">
    <mxGraphModel dx="1592" dy="969" grid="0" gridSize="10" guides="1" tooltips="1" connect="1" arrows="1" fold="1" page="0" pageScale="1" pageWidth="1169" pageHeight="827" math="1" shadow="0">
      <root>
        <mxCell id="0" />
        <mxCell id="1" parent="0" />
        <mxCell id="iq5UaAVDB56gOranLsDp-84" value="" style="rounded=0;whiteSpace=wrap;html=1;fillColor=none;dashed=1;" parent="1" vertex="1">
          <mxGeometry x="363" y="260" width="467" height="320" as="geometry" />
        </mxCell>
        <mxCell id="iq5UaAVDB56gOranLsDp-42" style="edgeStyle=orthogonalEdgeStyle;rounded=0;orthogonalLoop=1;jettySize=auto;html=1;exitX=1;exitY=0.5;exitDx=0;exitDy=0;" parent="1" source="iq5UaAVDB56gOranLsDp-9" edge="1">
          <mxGeometry relative="1" as="geometry">
            <mxPoint x="1090" y="180" as="targetPoint" />
          </mxGeometry>
        </mxCell>
        <mxCell id="iq5UaAVDB56gOranLsDp-9" value="" style="rounded=0;whiteSpace=wrap;html=1;" parent="1" vertex="1">
          <mxGeometry x="630" y="140" width="140" height="80" as="geometry" />
        </mxCell>
        <mxCell id="iq5UaAVDB56gOranLsDp-1" value="" style="ellipse;whiteSpace=wrap;html=1;aspect=fixed;" parent="1" vertex="1">
          <mxGeometry x="450" y="310" width="20" height="20" as="geometry" />
        </mxCell>
        <mxCell id="iq5UaAVDB56gOranLsDp-40" style="edgeStyle=orthogonalEdgeStyle;rounded=0;orthogonalLoop=1;jettySize=auto;html=1;exitX=1;exitY=0.5;exitDx=0;exitDy=0;entryX=0;entryY=0.5;entryDx=0;entryDy=0;" parent="1" source="iq5UaAVDB56gOranLsDp-2" target="iq5UaAVDB56gOranLsDp-4" edge="1">
          <mxGeometry relative="1" as="geometry" />
        </mxCell>
        <mxCell id="iq5UaAVDB56gOranLsDp-2" value="$$[d_1 ... d_P]$$" style="rounded=0;whiteSpace=wrap;html=1;" parent="1" vertex="1">
          <mxGeometry x="250" y="165" width="80" height="30" as="geometry" />
        </mxCell>
        <mxCell id="iq5UaAVDB56gOranLsDp-3" value="$$\pmb{d}^T$$" style="text;html=1;align=center;verticalAlign=middle;resizable=0;points=[];autosize=1;strokeColor=none;fillColor=none;" parent="1" vertex="1">
          <mxGeometry x="240" y="140" width="100" height="30" as="geometry" />
        </mxCell>
        <mxCell id="iq5UaAVDB56gOranLsDp-41" style="edgeStyle=orthogonalEdgeStyle;rounded=0;orthogonalLoop=1;jettySize=auto;html=1;exitX=1;exitY=0.5;exitDx=0;exitDy=0;entryX=0;entryY=0.5;entryDx=0;entryDy=0;" parent="1" source="iq5UaAVDB56gOranLsDp-4" target="iq5UaAVDB56gOranLsDp-9" edge="1">
          <mxGeometry relative="1" as="geometry" />
        </mxCell>
        <mxCell id="iq5UaAVDB56gOranLsDp-4" value="$$\frac{z}{z-1}$$" style="rounded=0;whiteSpace=wrap;html=1;" parent="1" vertex="1">
          <mxGeometry x="408" y="160" width="80" height="40" as="geometry" />
        </mxCell>
        <mxCell id="iq5UaAVDB56gOranLsDp-8" value="&lt;font style=&quot;font-size: 15px;&quot;&gt;对象&lt;/font&gt;" style="rounded=0;whiteSpace=wrap;html=1;" parent="1" vertex="1">
          <mxGeometry x="640" y="150" width="120" height="60" as="geometry" />
        </mxCell>
        <mxCell id="iq5UaAVDB56gOranLsDp-11" value="$$\begin{bmatrix}&lt;br&gt;a_1 \\&lt;br&gt;\vdots \\&lt;br&gt;a_N&lt;br&gt;\end{bmatrix}$$" style="rounded=0;whiteSpace=wrap;html=1;" parent="1" vertex="1">
          <mxGeometry x="380" y="280" width="40" height="80" as="geometry" />
        </mxCell>
        <mxCell id="iq5UaAVDB56gOranLsDp-38" value="" style="edgeStyle=orthogonalEdgeStyle;rounded=0;orthogonalLoop=1;jettySize=auto;html=1;" parent="1" source="iq5UaAVDB56gOranLsDp-12" target="iq5UaAVDB56gOranLsDp-37" edge="1">
          <mxGeometry relative="1" as="geometry" />
        </mxCell>
        <mxCell id="iq5UaAVDB56gOranLsDp-12" value="$$[1\ 0 ... 0]$$" style="rounded=0;whiteSpace=wrap;html=1;" parent="1" vertex="1">
          <mxGeometry x="845" y="305" width="80" height="30" as="geometry" />
        </mxCell>
        <mxCell id="iq5UaAVDB56gOranLsDp-14" value="$$\begin{bmatrix}&lt;br&gt;h_1 \\&lt;br&gt;\vdots \\&lt;br&gt;h_N&lt;br&gt;\end{bmatrix}$$" style="rounded=0;whiteSpace=wrap;html=1;" parent="1" vertex="1">
          <mxGeometry x="865" y="425" width="40" height="80" as="geometry" />
        </mxCell>
        <mxCell id="iq5UaAVDB56gOranLsDp-16" value="$$\begin{bmatrix}&lt;br&gt;0&amp;amp;1&amp;amp; &amp;amp;0\\&lt;br&gt;\vdots&amp;amp;\ddots&amp;amp;\ddots&amp;amp;\\&lt;br&gt;\vdots&amp;amp; &amp;amp;0&amp;amp;1\\&lt;br&gt;0&amp;amp;\cdots&amp;amp;0&amp;amp;1&lt;br&gt;\end{bmatrix}$$" style="rounded=0;whiteSpace=wrap;html=1;" parent="1" vertex="1">
          <mxGeometry x="620" y="412" width="120" height="106" as="geometry" />
        </mxCell>
        <mxCell id="iq5UaAVDB56gOranLsDp-17" value="$$z^{-1}$$" style="rounded=0;whiteSpace=wrap;html=1;" parent="1" vertex="1">
          <mxGeometry x="490" y="450" width="30" height="30" as="geometry" />
        </mxCell>
        <mxCell id="iq5UaAVDB56gOranLsDp-18" value="$$[\pmb{I}_{P\times P} \ \pmb{0}]$$" style="rounded=0;whiteSpace=wrap;html=1;" parent="1" vertex="1">
          <mxGeometry x="283" y="450" width="80" height="30" as="geometry" />
        </mxCell>
        <mxCell id="iq5UaAVDB56gOranLsDp-20" style="rounded=0;orthogonalLoop=1;jettySize=auto;html=1;entryX=0;entryY=0.5;entryDx=0;entryDy=0;shape=flexArrow;strokeWidth=1;width=6;endSize=3;endWidth=10;" parent="1" source="iq5UaAVDB56gOranLsDp-19" target="iq5UaAVDB56gOranLsDp-2" edge="1">
          <mxGeometry relative="1" as="geometry" />
        </mxCell>
        <mxCell id="iq5UaAVDB56gOranLsDp-19" value="" style="ellipse;whiteSpace=wrap;html=1;aspect=fixed;" parent="1" vertex="1">
          <mxGeometry x="200" y="170" width="20" height="20" as="geometry" />
        </mxCell>
        <mxCell id="iq5UaAVDB56gOranLsDp-22" style="rounded=0;orthogonalLoop=1;jettySize=auto;html=1;entryX=0.5;entryY=1;entryDx=0;entryDy=0;shape=flexArrow;strokeWidth=1;width=6;endSize=3;endWidth=10;exitX=0;exitY=0.5;exitDx=0;exitDy=0;edgeStyle=orthogonalEdgeStyle;" parent="1" source="iq5UaAVDB56gOranLsDp-18" target="iq5UaAVDB56gOranLsDp-19" edge="1">
          <mxGeometry relative="1" as="geometry">
            <mxPoint x="180" y="280" as="sourcePoint" />
            <mxPoint x="240" y="280" as="targetPoint" />
          </mxGeometry>
        </mxCell>
        <mxCell id="iq5UaAVDB56gOranLsDp-24" style="rounded=0;orthogonalLoop=1;jettySize=auto;html=1;entryX=0;entryY=0.5;entryDx=0;entryDy=0;shape=flexArrow;strokeWidth=1;width=6;endSize=3;endWidth=10;exitX=1;exitY=0.5;exitDx=0;exitDy=0;" parent="1" source="iq5UaAVDB56gOranLsDp-11" target="iq5UaAVDB56gOranLsDp-1" edge="1">
          <mxGeometry relative="1" as="geometry">
            <mxPoint x="470" y="320" as="sourcePoint" />
            <mxPoint x="530" y="320" as="targetPoint" />
          </mxGeometry>
        </mxCell>
        <mxCell id="iq5UaAVDB56gOranLsDp-27" style="rounded=0;orthogonalLoop=1;jettySize=auto;html=1;entryX=0;entryY=0.5;entryDx=0;entryDy=0;shape=flexArrow;strokeWidth=1;width=6;endSize=3;endWidth=10;" parent="1" target="iq5UaAVDB56gOranLsDp-19" edge="1">
          <mxGeometry relative="1" as="geometry">
            <mxPoint x="160" y="180" as="sourcePoint" />
            <mxPoint x="190" y="179.82999999999998" as="targetPoint" />
          </mxGeometry>
        </mxCell>
        <mxCell id="iq5UaAVDB56gOranLsDp-30" style="rounded=0;orthogonalLoop=1;jettySize=auto;html=1;entryX=0.5;entryY=1;entryDx=0;entryDy=0;shape=flexArrow;strokeWidth=1;width=6;endSize=3;endWidth=10;edgeStyle=orthogonalEdgeStyle;exitX=0;exitY=0.5;exitDx=0;exitDy=0;fillColor=default;" parent="1" source="iq5UaAVDB56gOranLsDp-17" target="iq5UaAVDB56gOranLsDp-1" edge="1">
          <mxGeometry relative="1" as="geometry">
            <mxPoint x="570" y="410" as="sourcePoint" />
            <mxPoint x="470" y="420" as="targetPoint" />
          </mxGeometry>
        </mxCell>
        <mxCell id="iq5UaAVDB56gOranLsDp-31" style="rounded=0;orthogonalLoop=1;jettySize=auto;html=1;shape=flexArrow;strokeWidth=1;width=6;endSize=3;endWidth=10;entryX=1;entryY=0.5;entryDx=0;entryDy=0;exitX=0;exitY=0.5;exitDx=0;exitDy=0;" parent="1" source="iq5UaAVDB56gOranLsDp-16" target="iq5UaAVDB56gOranLsDp-17" edge="1">
          <mxGeometry relative="1" as="geometry">
            <mxPoint x="620" y="440" as="sourcePoint" />
            <mxPoint x="600" y="440" as="targetPoint" />
          </mxGeometry>
        </mxCell>
        <mxCell id="iq5UaAVDB56gOranLsDp-32" value="" style="ellipse;whiteSpace=wrap;html=1;aspect=fixed;" parent="1" vertex="1">
          <mxGeometry x="782" y="455" width="20" height="20" as="geometry" />
        </mxCell>
        <mxCell id="iq5UaAVDB56gOranLsDp-33" style="rounded=0;orthogonalLoop=1;jettySize=auto;html=1;shape=flexArrow;strokeWidth=1;width=6;endSize=3;endWidth=10;entryX=1;entryY=0.5;entryDx=0;entryDy=0;exitX=0;exitY=0.5;exitDx=0;exitDy=0;" parent="1" source="iq5UaAVDB56gOranLsDp-32" target="iq5UaAVDB56gOranLsDp-16" edge="1">
          <mxGeometry relative="1" as="geometry">
            <mxPoint x="630" y="450" as="sourcePoint" />
            <mxPoint x="590" y="450" as="targetPoint" />
          </mxGeometry>
        </mxCell>
        <mxCell id="iq5UaAVDB56gOranLsDp-35" style="rounded=0;orthogonalLoop=1;jettySize=auto;html=1;shape=flexArrow;strokeWidth=1;width=6;endSize=3;endWidth=10;entryX=1;entryY=0.5;entryDx=0;entryDy=0;exitX=0;exitY=0.5;exitDx=0;exitDy=0;" parent="1" source="iq5UaAVDB56gOranLsDp-14" target="iq5UaAVDB56gOranLsDp-32" edge="1">
          <mxGeometry relative="1" as="geometry">
            <mxPoint x="780" y="450" as="sourcePoint" />
            <mxPoint x="750" y="450" as="targetPoint" />
          </mxGeometry>
        </mxCell>
        <mxCell id="iq5UaAVDB56gOranLsDp-36" style="rounded=0;orthogonalLoop=1;jettySize=auto;html=1;shape=flexArrow;strokeWidth=1;width=6;endSize=3;endWidth=10;entryX=0.5;entryY=0;entryDx=0;entryDy=0;edgeStyle=orthogonalEdgeStyle;startArrow=none;startFill=0;endArrow=block;endFill=0;" parent="1" target="iq5UaAVDB56gOranLsDp-32" edge="1">
          <mxGeometry relative="1" as="geometry">
            <mxPoint x="520" y="320" as="sourcePoint" />
            <mxPoint x="820" y="330" as="targetPoint" />
          </mxGeometry>
        </mxCell>
        <mxCell id="iq5UaAVDB56gOranLsDp-39" style="edgeStyle=orthogonalEdgeStyle;rounded=0;orthogonalLoop=1;jettySize=auto;html=1;exitX=0.5;exitY=1;exitDx=0;exitDy=0;entryX=1;entryY=0.5;entryDx=0;entryDy=0;" parent="1" source="iq5UaAVDB56gOranLsDp-37" target="iq5UaAVDB56gOranLsDp-14" edge="1">
          <mxGeometry relative="1" as="geometry" />
        </mxCell>
        <mxCell id="iq5UaAVDB56gOranLsDp-37" value="" style="ellipse;whiteSpace=wrap;html=1;aspect=fixed;" parent="1" vertex="1">
          <mxGeometry x="1016" y="310" width="20" height="20" as="geometry" />
        </mxCell>
        <mxCell id="iq5UaAVDB56gOranLsDp-45" style="edgeStyle=orthogonalEdgeStyle;rounded=0;orthogonalLoop=1;jettySize=auto;html=1;entryX=0;entryY=0.5;entryDx=0;entryDy=0;" parent="1" source="iq5UaAVDB56gOranLsDp-43" target="iq5UaAVDB56gOranLsDp-11" edge="1">
          <mxGeometry relative="1" as="geometry">
            <Array as="points">
              <mxPoint x="353" y="320" />
            </Array>
          </mxGeometry>
        </mxCell>
        <mxCell id="iq5UaAVDB56gOranLsDp-43" value="" style="shape=waypoint;sketch=0;fillStyle=solid;size=6;pointerEvents=1;points=[];fillColor=none;resizable=0;rotatable=0;perimeter=centerPerimeter;snapToPoint=1;" parent="1" vertex="1">
          <mxGeometry x="343" y="170" width="20" height="20" as="geometry" />
        </mxCell>
        <mxCell id="iq5UaAVDB56gOranLsDp-47" style="edgeStyle=orthogonalEdgeStyle;rounded=0;orthogonalLoop=1;jettySize=auto;html=1;entryX=0.5;entryY=0;entryDx=0;entryDy=0;" parent="1" source="iq5UaAVDB56gOranLsDp-46" target="iq5UaAVDB56gOranLsDp-37" edge="1">
          <mxGeometry relative="1" as="geometry">
            <Array as="points">
              <mxPoint x="1026" y="240" />
              <mxPoint x="1026" y="240" />
            </Array>
          </mxGeometry>
        </mxCell>
        <mxCell id="iq5UaAVDB56gOranLsDp-46" value="" style="shape=waypoint;sketch=0;fillStyle=solid;size=6;pointerEvents=1;points=[];fillColor=none;resizable=0;rotatable=0;perimeter=centerPerimeter;snapToPoint=1;" parent="1" vertex="1">
          <mxGeometry x="1016" y="170" width="20" height="20" as="geometry" />
        </mxCell>
        <mxCell id="iq5UaAVDB56gOranLsDp-28" style="rounded=0;orthogonalLoop=1;jettySize=auto;html=1;shape=flexArrow;strokeWidth=1;width=6;endSize=3;endWidth=10;exitX=1;exitY=0.5;exitDx=0;exitDy=0;fillColor=default;" parent="1" source="iq5UaAVDB56gOranLsDp-1" target="iq5UaAVDB56gOranLsDp-12" edge="1">
          <mxGeometry relative="1" as="geometry">
            <mxPoint x="530" y="320" as="sourcePoint" />
            <mxPoint x="560" y="319.71" as="targetPoint" />
          </mxGeometry>
        </mxCell>
        <mxCell id="iq5UaAVDB56gOranLsDp-29" style="rounded=0;orthogonalLoop=1;jettySize=auto;html=1;entryX=1;entryY=0.5;entryDx=0;entryDy=0;shape=flexArrow;strokeWidth=1;width=6;endSize=3;endWidth=10;exitX=0;exitY=0.5;exitDx=0;exitDy=0;fillColor=default;" parent="1" source="iq5UaAVDB56gOranLsDp-17" target="iq5UaAVDB56gOranLsDp-18" edge="1">
          <mxGeometry relative="1" as="geometry">
            <mxPoint x="470" y="417" as="sourcePoint" />
            <mxPoint x="510" y="417" as="targetPoint" />
          </mxGeometry>
        </mxCell>
        <mxCell id="iq5UaAVDB56gOranLsDp-53" value="$$\pmb{a}$$" style="text;html=1;align=center;verticalAlign=middle;resizable=0;points=[];autosize=1;strokeColor=none;fillColor=none;" parent="1" vertex="1">
          <mxGeometry x="355" y="357" width="90" height="30" as="geometry" />
        </mxCell>
        <mxCell id="iq5UaAVDB56gOranLsDp-54" value="$$\pmb{h}$$" style="text;html=1;align=center;verticalAlign=middle;resizable=0;points=[];autosize=1;strokeColor=none;fillColor=none;" parent="1" vertex="1">
          <mxGeometry x="840" y="400" width="90" height="30" as="geometry" />
        </mxCell>
        <mxCell id="iq5UaAVDB56gOranLsDp-55" value="$$\pmb{S}$$" style="text;html=1;align=center;verticalAlign=middle;resizable=0;points=[];autosize=1;strokeColor=none;fillColor=none;" parent="1" vertex="1">
          <mxGeometry x="635" y="382" width="90" height="30" as="geometry" />
        </mxCell>
        <mxCell id="iq5UaAVDB56gOranLsDp-56" value="$$\pmb{w}_P(k)$$" style="text;html=1;align=center;verticalAlign=middle;resizable=0;points=[];autosize=1;strokeColor=none;fillColor=none;" parent="1" vertex="1">
          <mxGeometry x="90" y="150" width="120" height="30" as="geometry" />
        </mxCell>
        <mxCell id="iq5UaAVDB56gOranLsDp-60" value="$$\pmb{\tilde y}_{P0}(k)$$" style="text;html=1;align=center;verticalAlign=middle;resizable=0;points=[];autosize=1;strokeColor=none;fillColor=none;" parent="1" vertex="1">
          <mxGeometry x="165" y="300" width="160" height="30" as="geometry" />
        </mxCell>
        <mxCell id="iq5UaAVDB56gOranLsDp-61" value="$$\Delta u(k)$$" style="text;html=1;align=center;verticalAlign=middle;resizable=0;points=[];autosize=1;strokeColor=none;fillColor=none;" parent="1" vertex="1">
          <mxGeometry x="325" y="150" width="110" height="30" as="geometry" />
        </mxCell>
        <mxCell id="iq5UaAVDB56gOranLsDp-62" value="$$u(k)$$" style="text;html=1;align=center;verticalAlign=middle;resizable=0;points=[];autosize=1;strokeColor=none;fillColor=none;" parent="1" vertex="1">
          <mxGeometry x="520" y="150" width="70" height="30" as="geometry" />
        </mxCell>
        <mxCell id="iq5UaAVDB56gOranLsDp-63" value="$$y(k+1)$$" style="text;html=1;align=center;verticalAlign=middle;resizable=0;points=[];autosize=1;strokeColor=none;fillColor=none;" parent="1" vertex="1">
          <mxGeometry x="865" y="150" width="80" height="30" as="geometry" />
        </mxCell>
        <mxCell id="iq5UaAVDB56gOranLsDp-65" value="$$+$$" style="text;html=1;align=center;verticalAlign=middle;resizable=0;points=[];autosize=1;strokeColor=none;fillColor=none;" parent="1" vertex="1">
          <mxGeometry x="150" y="180" width="60" height="30" as="geometry" />
        </mxCell>
        <mxCell id="iq5UaAVDB56gOranLsDp-66" value="$$-$$" style="text;html=1;align=center;verticalAlign=middle;resizable=0;points=[];autosize=1;strokeColor=none;fillColor=none;" parent="1" vertex="1">
          <mxGeometry x="210" y="195" width="50" height="30" as="geometry" />
        </mxCell>
        <mxCell id="iq5UaAVDB56gOranLsDp-67" value="$$+$$" style="text;html=1;align=center;verticalAlign=middle;resizable=0;points=[];autosize=1;strokeColor=none;fillColor=none;" parent="1" vertex="1">
          <mxGeometry x="1010" y="275" width="60" height="30" as="geometry" />
        </mxCell>
        <mxCell id="iq5UaAVDB56gOranLsDp-68" value="$$-$$" style="text;html=1;align=center;verticalAlign=middle;resizable=0;points=[];autosize=1;strokeColor=none;fillColor=none;" parent="1" vertex="1">
          <mxGeometry x="986" y="320" width="50" height="30" as="geometry" />
        </mxCell>
        <mxCell id="iq5UaAVDB56gOranLsDp-70" value="$$\pmb{\tilde y}_{N1}(k)$$" style="text;html=1;align=center;verticalAlign=middle;resizable=0;points=[];autosize=1;strokeColor=none;fillColor=none;" parent="1" vertex="1">
          <mxGeometry x="560" y="290" width="160" height="30" as="geometry" />
        </mxCell>
        <mxCell id="iq5UaAVDB56gOranLsDp-73" value="$$\tilde y_1(k+1\mid k)$$" style="text;html=1;align=center;verticalAlign=middle;resizable=0;points=[];autosize=1;strokeColor=none;fillColor=none;" parent="1" vertex="1">
          <mxGeometry x="890" y="290" width="160" height="30" as="geometry" />
        </mxCell>
        <mxCell id="iq5UaAVDB56gOranLsDp-74" value="$$e(k+1)$$" style="text;html=1;align=center;verticalAlign=middle;resizable=0;points=[];autosize=1;strokeColor=none;fillColor=none;" parent="1" vertex="1">
          <mxGeometry x="916" y="470" width="80" height="30" as="geometry" />
        </mxCell>
        <mxCell id="iq5UaAVDB56gOranLsDp-75" value="$$\pmb{\tilde y}_{cor}(k+1)$$" style="text;html=1;align=center;verticalAlign=middle;resizable=0;points=[];autosize=1;strokeColor=none;fillColor=none;" parent="1" vertex="1">
          <mxGeometry x="700" y="475" width="180" height="30" as="geometry" />
        </mxCell>
        <mxCell id="iq5UaAVDB56gOranLsDp-76" value="$$+$$" style="text;html=1;align=center;verticalAlign=middle;resizable=0;points=[];autosize=1;strokeColor=none;fillColor=none;" parent="1" vertex="1">
          <mxGeometry x="770" y="420" width="60" height="30" as="geometry" />
        </mxCell>
        <mxCell id="iq5UaAVDB56gOranLsDp-78" value="$$+$$" style="text;html=1;align=center;verticalAlign=middle;resizable=0;points=[];autosize=1;strokeColor=none;fillColor=none;" parent="1" vertex="1">
          <mxGeometry x="790" y="440" width="60" height="30" as="geometry" />
        </mxCell>
        <mxCell id="iq5UaAVDB56gOranLsDp-79" value="$$\pmb{\tilde y}_{N0}(k+1)$$" style="text;html=1;align=center;verticalAlign=middle;resizable=0;points=[];autosize=1;strokeColor=none;fillColor=none;" parent="1" vertex="1">
          <mxGeometry x="480" y="470" width="180" height="30" as="geometry" />
        </mxCell>
        <mxCell id="iq5UaAVDB56gOranLsDp-80" value="$$\pmb{\tilde y}_{N0}(k)$$" style="text;html=1;align=center;verticalAlign=middle;resizable=0;points=[];autosize=1;strokeColor=none;fillColor=none;" parent="1" vertex="1">
          <mxGeometry x="343" y="470" width="160" height="30" as="geometry" />
        </mxCell>
        <mxCell id="iq5UaAVDB56gOranLsDp-85" value="预测" style="text;html=1;align=center;verticalAlign=middle;resizable=0;points=[];autosize=1;strokeColor=none;fillColor=none;" parent="1" vertex="1">
          <mxGeometry x="570" y="550" width="50" height="30" as="geometry" />
        </mxCell>
        <mxCell id="iq5UaAVDB56gOranLsDp-86" value="" style="rounded=0;whiteSpace=wrap;html=1;fillColor=none;dashed=1;" parent="1" vertex="1">
          <mxGeometry x="830" y="260" width="260" height="320" as="geometry" />
        </mxCell>
        <mxCell id="iq5UaAVDB56gOranLsDp-87" value="校正" style="text;html=1;align=center;verticalAlign=middle;resizable=0;points=[];autosize=1;strokeColor=none;fillColor=none;" parent="1" vertex="1">
          <mxGeometry x="936" y="550" width="50" height="30" as="geometry" />
        </mxCell>
        <mxCell id="iq5UaAVDB56gOranLsDp-88" value="" style="endArrow=none;html=1;rounded=0;dashed=1;" parent="1" edge="1">
          <mxGeometry width="50" height="50" relative="1" as="geometry">
            <mxPoint x="120" y="580" as="sourcePoint" />
            <mxPoint x="120" y="80" as="targetPoint" />
          </mxGeometry>
        </mxCell>
        <mxCell id="iq5UaAVDB56gOranLsDp-89" value="" style="endArrow=none;html=1;rounded=0;dashed=1;entryX=0;entryY=1;entryDx=0;entryDy=0;" parent="1" target="iq5UaAVDB56gOranLsDp-84" edge="1">
          <mxGeometry width="50" height="50" relative="1" as="geometry">
            <mxPoint x="120" y="580" as="sourcePoint" />
            <mxPoint x="90" y="90" as="targetPoint" />
          </mxGeometry>
        </mxCell>
        <mxCell id="iq5UaAVDB56gOranLsDp-90" value="" style="endArrow=none;html=1;rounded=0;dashed=1;" parent="1" edge="1">
          <mxGeometry width="50" height="50" relative="1" as="geometry">
            <mxPoint x="590" y="80" as="sourcePoint" />
            <mxPoint x="120" y="80" as="targetPoint" />
          </mxGeometry>
        </mxCell>
        <mxCell id="iq5UaAVDB56gOranLsDp-91" value="" style="endArrow=none;html=1;rounded=0;dashed=1;entryX=0.483;entryY=0;entryDx=0;entryDy=0;entryPerimeter=0;" parent="1" target="iq5UaAVDB56gOranLsDp-84" edge="1">
          <mxGeometry width="50" height="50" relative="1" as="geometry">
            <mxPoint x="590" y="80" as="sourcePoint" />
            <mxPoint x="90" y="90" as="targetPoint" />
          </mxGeometry>
        </mxCell>
        <mxCell id="iq5UaAVDB56gOranLsDp-93" value="控制" style="text;html=1;align=center;verticalAlign=middle;resizable=0;points=[];autosize=1;strokeColor=none;fillColor=none;" parent="1" vertex="1">
          <mxGeometry x="210" y="550" width="50" height="30" as="geometry" />
        </mxCell>
      </root>
    </mxGraphModel>
  </diagram>
</mxfile>
